# xmcd CD database file
#
# Track frame offsets:
#	150
#	43352
#	63337
#	77252
#	98990
#	134760
#	160437
#	192882
#	223635
#	247445
#	265847
#	289255
#
# Disc length: 4248 seconds
#
# Revision: 0
# Processed by: cddbd v1.5.1PL0 Copyright (c) Steve Scherf et al.
# Submitted via: CDex 1.51
#
DISCID=be10960c
DTITLE=Various Artist - The Blue Note Years Disc 3
DYEAR=1990
DGENRE=Jazz
TTITLE0=Moanin'
TTITLE1=Cleopatra's Dream
TTITLE2=Blue Moon
TTITLE3=Amen
TTITLE4=When Johnny Comes Marchin' Home
TTITLE5=Remember
TTITLE6=Look Out
TTITLE7=Nica's Dream
TTITLE8=Hub Cap
TTITLE9=Sunday Morning
TTITLE10=Moon River
TTITLE11=Cheese Cake
EXTD=YEAR: 1990
EXTT0=
EXTT1=
EXTT2=
EXTT3=
EXTT4=
EXTT5=
EXTT6=
EXTT7=
EXTT8=
EXTT9=
EXTT10=
EXTT11=
PLAYORDER=
